<?xml version="1.0" ?>
<svg xmlns="http://www.w3.org/2000/svg" viewBox="0 0 109.5 124.5">
  <path d="M74.7,14.8c0,0-1.4,0.4-3.7,1.1c-0.4-1.3-1-2.8-1.8-4.4c-2.6-5-6.5-7.7-11.1-7.7c0,0,0,0,0,0
    c-0.3,0-0.6,0-1,0.1c-0.1-0.2-0.3-0.3-0.4-0.5c-2-2.2-4.6-3.2-7.7-3.1c-6,0.2-12,4.5-16.8,12.2c-3.4,5.4-6,12.2-6.7,17.5
    c-6.9,2.1-11.7,3.6-11.8,3.7c-3.5,1.1-3.6,1.2-4,4.5c-0.3,2.5-9.5,73.3-9.5,73.3L75.3,124.5l31.2-6.7c0,0-13.6-92.5-13.7-93.1
    C92.7,23.9,74.7,14.8,74.7,14.8z M57.6,20.5c-3.8,1.1-7.9,2.4-12.1,3.7c1.2-4.4,3.4-8.8,6.1-11.8c1-1.1,2.4-2.4,4-3.2
    C56.7,12.5,57.4,16.7,57.6,20.5z M45.9,4.7c1.3,0,2.4,0.3,3.3,0.9c-1.5,0.7-2.9,1.9-4.2,3.3c-3.4,3.7-6,9.2-7.2,14.6
    c-3.3,1-6.6,2-9.6,2.9C30.9,15.6,38.5,5,45.9,4.7z M47.5,73.4c0,0-5.3-2.5-11.8-2.5c-9.5,0-10,6-10,7.5c0,8.2,21.4,11.4,21.4,30.7
    c0,15.2-9.6,25-22.6,25C10.8,134,2,124.2,2,124.2l4-13.1c0,0,8.6,7.4,15.8,7.4c4.7,0,6.6-3.7,6.6-6.4c0-11.2-17.6-11.7-17.6-30.1
    c0-15.5,11.1-30.4,33.6-30.4c8.7,0,13,2.5,13,2.5L47.5,73.4z"/>
</svg>